<?xml version="1.0" encoding="UTF-8"?>
<svg id="uuid-2950b226-1c82-46b4-9812-2673673da8b4" data-name="Capa 1" xmlns="http://www.w3.org/2000/svg" width="18" height="18" viewBox="0 0 18 18">
  <defs>
    <style>
      .uuid-8a75b0ce-a6be-4578-9608-1a088fa5606a {
        fill: #2f7ef2;
      }

      .uuid-d4ff436b-1740-483d-a5df-502bdcf1856f {
        fill: #fff;
      }
    </style>
  </defs>
  <circle class="uuid-d4ff436b-1740-483d-a5df-502bdcf1856f" cx="9" cy="9" r="7.6433"/>
  <g>
    <path class="uuid-8a75b0ce-a6be-4578-9608-1a088fa5606a" d="M8.3013,8.2064c.1707.0649.358.0975.5615.0975.0941,0,.1978-.0109.2713-.0216.0251-.0035.0478-.0148.0653-.0314.0177-.0166.0304-.0384.0355-.0633.0168-.0803-.0497-.1536-.1312-.1446-.078.0086-.1612.016-.1961.016-.2312,0-.4346-.0462-.6106-.138-.176-.0922-.3134-.2204-.4124-.3847-.0988-.1645-.1483-.3559-.1483-.5746,0-.1863.0329-.3584.0984-.5167.0655-.1581.1563-.2966.2725-.4157.1162-.1191.2528-.2119.4099-.2785.1569-.0667.3257-.1002.5062-.1002.2175,0,.407.038.5685.1138.1616.076.2873.1818.3769.3175.0897.1357.1345.2957.1345.4797,0,.1068-.0121.2072-.0363.3009-.024.0937-.0577.176-.1008.2467-.0433.0708-.0939.1263-.1518.1664-.0583.0403-.1206.0604-.1873.0604-.0472,0-.0842-.0127-.1113-.038-.0269-.0251-.0405-.0598-.0405-.1035,0-.0092.0004-.0199.001-.032.0006-.0119.0025-.0249.006-.0388l.1698-.7749c.0025-.0113.0037-.0224.0037-.0333,0-.0826-.0672-.1536-.154-.1536-.0719,0-.1341.0497-.1501.1199l-.0302.1329c-.038-.086-.0805-.1485-.1592-.2009-.0787-.0522-.1688-.0785-.2699-.0785-.099,0-.191.0211-.2762.0631-.085.0419-.1594.1012-.2234.1776-.0637.0766-.1129.1659-.1475.2684-.0343.1023-.0516.2126-.0516.3311,0,.1795.0489.3249.1466.4364.0978.1117.2255.1674.383.1674.0932,0,.1783-.0207.2553-.0622.0772-.0413.1382-.1006.1828-.1776h.0277v.0136c.008.0715.047.1298.1166.1752.0694.0454.1555.0682.2579.0682.1575,0,.2966-.0452.4175-.1355.1208-.0904.2154-.214.2838-.3709.0684-.1571.1025-.3374.1025-.5409,0-.169-.0318-.3232-.0957-.4623-.0637-.1392-.1544-.2598-.2717-.3615-.1173-.1017-.2565-.1805-.4175-.2362s-.3387-.0836-.5331-.0836c-.23,0-.4413.0384-.634.1154-.1926.0772-.3596.1855-.5011.3253s-.2512.3044-.3296.4943c-.0782.1898-.1171.398-.1171.6245,0,.1967.0341.3767.1025.5399.0684.1633.1647.3048.289.4245.1242.1195.2717.2119.4424.277ZM9.1811,7.0366c-.0384.0834-.0906.1497-.1561.1984-.0655.0489-.138.0733-.2173.0733-.0908,0-.1627-.0316-.2156-.0947-.053-.0633-.0793-.1483-.0793-.2555,0-.1023.0183-.1945.055-.2768.0368-.0823.0869-.1466.1503-.1932.0631-.0468.1345-.07.2138-.07.0932,0,.1676.0314.2234.0939.0559.0628.0838.1458.0838.2495,0,.1-.0193.1918-.0579.275Z"/>
    <path class="uuid-8a75b0ce-a6be-4578-9608-1a088fa5606a" d="M9,.7981C4.4702.7981.7982,4.4701.7982,8.9999s3.672,8.202,8.2018,8.202,8.2018-3.6722,8.2018-8.202S13.5298.7981,9,.7981ZM3.903,7.2023l4.851-3.4691c.0735-.0526.1596-.0789.246-.0789.0861,0,.1725.0263.246.0789l4.851,3.4691c.0411.0294.0762.0657.1039.1066l-3.816,2.7289-1.0811-.7732c-.1817-.1298-.4257-.1298-.6073,0l-1.0813.7732-3.8158-2.7289c.0277-.0409.0628-.0772.1039-.1066ZM3.7261,12.4622v-4.9159c0-.0366.0049-.0725.014-.1072l3.7544,2.685-3.6617,2.6185c-.0663-.0746-.1068-.1729-.1068-.2805ZM13.851,12.8851H4.149c-.0733,0-.1421-.0187-.2023-.0517l4.8311-3.4547c.1329-.0951.3115-.0951.4444,0l4.8309,3.4549c-.06.0327-.129.0515-.2021.0515ZM14.2739,12.4622c0,.1076-.0403.2058-.1066.2805l-3.6619-2.6185,3.7544-2.685c.0092.0347.014.0706.014.1072v4.9159Z"/>
  </g>
</svg>