<?xml version="1.0" encoding="UTF-8"?>
<svg id="uuid-a341e805-cc28-432d-9f5a-7376e092fa9d" data-name="Capa 1" xmlns="http://www.w3.org/2000/svg" width="18" height="18" xmlns:xlink="http://www.w3.org/1999/xlink" viewBox="0 0 18 18">
  <defs>
    <style>
      .uuid-1bc6c5a2-c9d9-4c22-9ac7-d79873372676 {
        fill: #fff;
      }

      .uuid-ea473955-e773-4ab6-9974-4a1089e1c48c {
        fill: url(#uuid-adecc932-b7cb-47c1-8129-481f4ca906ae);
      }
    </style>
    <linearGradient id="uuid-adecc932-b7cb-47c1-8129-481f4ca906ae" x1="1.1903" y1="2.4039" x2="17.8617" y2="16.4845" gradientUnits="userSpaceOnUse">
      <stop offset=".0011" stop-color="#fbe18a"/>
      <stop offset=".2094" stop-color="#fcbb45"/>
      <stop offset=".3765" stop-color="#f75274"/>
      <stop offset=".5238" stop-color="#d53692"/>
      <stop offset=".7394" stop-color="#8f39ce"/>
      <stop offset="1" stop-color="#5b4fe9"/>
    </linearGradient>
  </defs>
  <circle class="uuid-ea473955-e773-4ab6-9974-4a1089e1c48c" cx="9" cy="9" r="8.3373"/>
  <g>
    <path class="uuid-1bc6c5a2-c9d9-4c22-9ac7-d79873372676" d="M11.588,5.8459c-.3165,0-.5731.2566-.5731.5731s.2566.5731.5731.5731.5731-.2566.5731-.5731-.2566-.5731-.5731-.5731Z"/>
    <path class="uuid-1bc6c5a2-c9d9-4c22-9ac7-d79873372676" d="M9.0401,6.5809c-1.3274,0-2.4074,1.0799-2.4074,2.4074s1.08,2.4074,2.4074,2.4074,2.4074-1.08,2.4074-2.4074-1.08-2.4074-2.4074-2.4074ZM9.0401,10.5304c-.8503,0-1.5421-.6917-1.5421-1.5421s.6918-1.5421,1.5421-1.5421,1.5421.6917,1.5421,1.5421-.6917,1.5421-1.5421,1.5421Z"/>
    <path class="uuid-1bc6c5a2-c9d9-4c22-9ac7-d79873372676" d="M10.9513,13.8761h-3.9028c-1.6191,0-2.9363-1.3172-2.9363-2.9363v-3.903c0-1.6191,1.3172-2.9363,2.9363-2.9363h3.9028c1.6191,0,2.9365,1.3171,2.9365,2.9363v3.903c0,1.619-1.3173,2.9363-2.9365,2.9363ZM7.0485,5.0202c-1.112,0-2.0167.9045-2.0167,2.0166v3.903c0,1.112.9046,2.0167,2.0167,2.0167h3.9028c1.112,0,2.0168-.9046,2.0168-2.0167v-3.903c0-1.1121-.9047-2.0166-2.0168-2.0166h-3.9028Z"/>
  </g>
</svg>