<?xml version="1.0" encoding="UTF-8"?>
<svg id="uuid-3acbcb69-0354-4b20-ad2b-b94609993725" data-name="Capa 1" xmlns="http://www.w3.org/2000/svg" width="18" height="18" viewBox="0 0 18 18">
  <defs>
    <style>
      .uuid-ce7ca687-850e-48ed-a87f-f438008f82b2 {
        fill: #fff;
      }

      .uuid-3da59d55-ced4-46ce-848d-411b97f556a3 {
        fill: #0a66c2;
      }
    </style>
  </defs>
  <path class="uuid-3da59d55-ced4-46ce-848d-411b97f556a3" d="M9.0062.7938c1.6364,0,3.2727-.0007,4.9091.0002,1.3333.0007,2.5132.7833,3.0288,2.0109.1721.4098.2502.8381.2499,1.2841-.0025,3.2775.0015,6.555-.0026,9.8325-.002,1.5999-1.161,2.955-2.7341,3.2073-.2019.0324-.4083.0509-.6127.0511-3.2153.0031-6.4306.001-9.6459.003-.7486.0005-1.4378-.1874-2.0423-.636-.7105-.5272-1.1525-1.2279-1.2955-2.1047-.0375-.2298-.0518-.4657-.052-.6988-.0033-3.2105-.0028-6.421-.0021-9.6316.0003-1.6238,1.0984-2.96,2.6915-3.2665.2049-.0394.4182-.048.6277-.0485,1.6268-.0038,3.2536-.0021,4.8804-.0021v-.001ZM9.2144,8.1376c0-.2393-.0079-.4444.0028-.6485.0071-.1355-.0315-.181-.173-.1787-.5021.0083-1.0046.0082-1.5067,0-.1417-.0023-.1747.0444-.1744.1795.0039,1.9564.0037,3.9129-.0004,5.8694-.0003.1289.04.1627.1636.1613.507-.0058,1.0141-.0059,1.5211,0,.1274.0015.1711-.0302.1703-.1671-.0061-1.0428-.0029-2.0856-.0036-3.1284-.0002-.3027.0933-.5712.2812-.8086.5452-.6887,1.6272-.6212,2.035.1277.122.2241.164.4675.1645.7185.0018,1.0332.0025,2.0665-.0008,3.0997-.0004.1148.0288.1599.1517.1585.5118-.0058,1.0237-.0053,1.5355-.0003.1218.0012.1693-.0334.1689-.162-.0038-1.3346.0116-2.6694-.0082-4.0037-.0119-.8046-.3882-1.4223-1.0861-1.8366-.5564-.3304-1.1687-.2978-1.7723-.2466-.6012.0509-1.0772.3622-1.469.8659ZM6.3155,10.4124c0-.9802-.0015-1.9605.002-2.9407.0004-.1118-.0217-.1621-.1483-.1606-.5259.0063-1.052.0061-1.5779.0002-.125-.0014-.1516.0482-.1515.1607.0023,1.9605.0029,3.921-.0011,5.8815-.0003.1375.0494.1694.1756.1681.5116-.0053,1.0233-.006,1.5349.0004.1301.0016.1701-.0351.1693-.1688-.0056-.9802-.003-1.9605-.003-2.9407ZM6.4933,5.3213c-.0009-.624-.5067-1.1287-1.1312-1.1288-.5983,0-1.0967.5137-1.0975,1.1312-.0007.6188.5079,1.1354,1.1145,1.1317.6097-.0037,1.1151-.5181,1.1142-1.1341Z"/>
  <path class="uuid-ce7ca687-850e-48ed-a87f-f438008f82b2" d="M9.2144,8.1376c.3918-.5037.8678-.815,1.469-.8659.6036-.0511,1.2159-.0837,1.7723.2466.6979.4143,1.0742,1.0321,1.0861,1.8366.0198,1.3343.0044,2.6691.0082,4.0037.0004.1286-.0471.1632-.1689.162-.5118-.0051-1.0237-.0055-1.5355.0003-.1229.0014-.1521-.0437-.1517-.1585.0033-1.0332.0026-2.0665.0008-3.0997-.0004-.2511-.0424-.4944-.1645-.7185-.4078-.7489-1.4899-.8164-2.035-.1277-.1879.2374-.2814.5059-.2812.8086.0007,1.0428-.0025,2.0856.0036,3.1284.0008.1369-.0429.1686-.1703.1671-.507-.0059-1.0141-.0058-1.5211,0-.1236.0014-.1639-.0324-.1636-.1613.0041-1.9564.0043-3.9129.0004-5.8694-.0003-.1351.0327-.1818.1744-.1795.5021.0082,1.0046.0083,1.5067,0,.1415-.0023.1802.0431.173.1787-.0108.2041-.0028.4092-.0028.6485Z"/>
  <path class="uuid-ce7ca687-850e-48ed-a87f-f438008f82b2" d="M6.3155,10.4124c0,.9802-.0026,1.9605.003,2.9407.0008.1336-.0392.1704-.1693.1688-.5116-.0064-1.0233-.0057-1.5349-.0004-.1263.0013-.1759-.0306-.1756-.1681.004-1.9605.0034-3.921.0011-5.8815-.0001-.1125.0265-.1621.1515-.1607.5259.0059,1.052.0061,1.5779-.0002.1266-.0015.1487.0487.1483.1606-.0034.9802-.002,1.9605-.002,2.9407Z"/>
  <path class="uuid-ce7ca687-850e-48ed-a87f-f438008f82b2" d="M6.4933,5.3213c.0009.616-.5045,1.1304-1.1142,1.1341-.6065.0037-1.1152-.5129-1.1145-1.1317.0007-.6175.4992-1.1312,1.0975-1.1312.6244,0,1.1303.5048,1.1312,1.1288Z"/>
</svg>