<?xml version="1.0" encoding="UTF-8"?>
<svg id="uuid-7d83c72d-2275-4fa5-afe9-3358e5fc2bd7" data-name="Capa 1" xmlns="http://www.w3.org/2000/svg" width="18" height="18" viewBox="0 0 18 18">
  <defs>
    <style>
      .uuid-5c891b32-55e7-4cdb-83a3-f60598b104ff {
        fill: #fff;
      }

      .uuid-799b7696-5c1d-4521-84e0-c59b2d6bd94c {
        fill: red;
      }
    </style>
  </defs>
  <path class="uuid-799b7696-5c1d-4521-84e0-c59b2d6bd94c" d="M8.9905.6549C4.3512.6549.5906,4.4157.5906,9.055c0,3.4172,2.0439,6.352,4.9728,7.6641-.0101-.236-.0202-.4721-.0124-.7091.0273-.817.1282-1.0976,1.1813-5.5262.0155-.0676-.0017-.1237-.0244-.1846-.2518-.6803-.3018-1.3704-.0816-2.0698.4766-1.5105,2.1892-1.6263,2.4888-.3798.1843.7708-.3038,1.7796-.6783,3.2707-.3102,1.2305,1.1378,2.1051,2.3758,1.2068,1.1418-.8278,1.5846-2.8129,1.5005-4.2198-.166-2.8049-3.2417-3.4113-5.1933-2.508-2.2369,1.0345-2.7455,3.8076-1.7355,5.0747.1282.1613.2269.2597.1846.4232-.0651.2537-.1226.5094-.1924.7617-.0521.1878-.2095.2562-.3992.179-.3725-.1504-.6828-.3878-.9344-.6999-.8578-1.0622-1.103-3.1632.0311-4.9418,1.2565-1.9706,3.5936-2.7675,5.7275-2.5259,2.5485.2899,4.1596,2.0313,4.4614,4.0068.1375.8999.0384,3.1191-1.2247,4.6875-1.4534,1.8023-3.8093,1.9219-4.8963.8156-.0839-.0847-.1509-.1842-.2328-.2854-.0121.0407-.023.075-.032.1095-.5218,2.0445-.5799,2.4985-1.1159,3.4477-.0828.1457-.1742.2853-.2634.4264.7877.2446,1.6251.3764,2.493.3764,4.6393,0,8.4002-3.7608,8.4002-8.4001S13.6298.6549,8.9905.6549Z"/>
  <path class="uuid-5c891b32-55e7-4cdb-83a3-f60598b104ff" d="M7.8768,13.2045c.0089-.0345.0199-.0689.032-.1095.082.1012.149.2007.2328.2854,1.087,1.1063,3.4429.9867,4.8963-.8156,1.2631-1.5684,1.3622-3.7876,1.2247-4.6875-.3018-1.9756-1.9129-3.7169-4.4614-4.0068-2.1339-.2416-4.471.5553-5.7275,2.5259-1.1341,1.7786-.8889,3.8795-.0311,4.9418.2517.3121.5619.5495.9344.6999.1896.0772.3471.0088.3992-.179.0698-.2523.1273-.508.1924-.7617.0424-.1634-.0564-.2619-.1846-.4232-1.0099-1.2671-.5013-4.0402,1.7355-5.0747,1.9516-.9033,5.0273-.2969,5.1933,2.508.0841,1.4068-.3587,3.3919-1.5005,4.2198-1.2379.8982-2.686.0237-2.3758-1.2068.3745-1.4911.8627-2.4999.6783-3.2707-.2996-1.2465-2.0122-1.1307-2.4888.3798-.2202.6995-.1702,1.3895.0816,2.0698.0227.0609.0399.117.0244.1846-1.0531,4.4286-1.154,4.7092-1.1813,5.5262-.0078.237.0023.4731.0124.7091.3032.1359.6129.2599.9341.3595.0892-.1411.1806-.2807.2634-.4264.5361-.9493.5942-1.4033,1.1159-3.4477Z"/>
</svg>