<?xml version="1.0" encoding="UTF-8"?>
<svg id="uuid-54594062-6b4d-4e80-b5de-3cb6a4f5947a" data-name="Capa 1" xmlns="http://www.w3.org/2000/svg" width="18" height="18" viewBox="0 0 18 18">
  <defs>
    <style>
      .uuid-9b9e5cd6-08a0-40b1-a02c-38b984e52c19 {
        fill: #00d757;
      }

      .uuid-470c573f-7480-4827-b5f3-9a00cae9ac87 {
        fill: #f7f9f8;
      }
    </style>
  </defs>
  <path class="uuid-9b9e5cd6-08a0-40b1-a02c-38b984e52c19" d="M17.5332,9.0131c.1665,4.324-3.521,8.5421-8.526,8.5448-4.7231.0025-8.544-3.8465-8.5461-8.5867C.459,4.2576,4.4091.3056,9.2954.4458c4.599.1319,8.4103,4.1047,8.2378,8.5673ZM7.7,4.9733c-.5345.0218-1.153.0262-1.7696.0989-.7619.0898-1.5148.2184-2.2498.439-.2512.0754-.4312.2451-.5208.4945-.1051.2923-.0509.5631.1561.792.2382.2634.5327.3226.8721.2211.9028-.2699,1.8318-.3969,2.7686-.4357,1.1597-.048,2.3168-.0002,3.4655.1983,1.2736.2201,2.4979.5772,3.6268,1.2221.4158.2375.9064.119,1.1299-.2733.2213-.3885.0863-.8594-.3243-1.0991-.3988-.2329-.8128-.4369-1.2419-.6084-1.8711-.7478-3.8258-1.0342-5.9126-1.0494ZM7.65,9.2425c.5253.0228,1.1346.0519,1.7411.1467,1.3081.2045,2.5489.5914,3.6865,1.2825.1566.0951.3305.1272.5131.0699.2505-.0785.4259-.2382.4728-.4976.0574-.318-.0582-.5665-.345-.736-1.6455-.9729-3.4393-1.4395-5.3326-1.5649-.6756-.0447-1.3501-.0278-2.0251.0374-.7366.0711-1.4605.1975-2.1668.4184-.3921.1226-.5857.4742-.4727.8423.1064.3465.4752.5292.8581.4166.9746-.2867,1.9724-.4038,3.0705-.4152ZM7.6921,10.7172c-.3768.013-.7532.0058-1.1305.0429-.715.0703-1.4236.1723-2.1199.3485-.2984.0755-.4542.3554-.3812.6417.0665.2607.3532.4433.6316.3796.6236-.1428,1.2534-.2381,1.8895-.3073.8115-.0884,1.6207-.0811,2.427.0238,1.1369.1479,2.208.4996,3.1915,1.0996.1251.0763.2606.1147.4072.071.2061-.0615.3519-.1893.3902-.406.0474-.2681-.0493-.45-.3019-.5998-1.5426-.9151-3.2186-1.315-5.0036-1.2939Z"/>
  <path class="uuid-470c573f-7480-4827-b5f3-9a00cae9ac87" d="M7.7,4.9733c2.0868.0152,4.0415.3015,5.9126,1.0494.4291.1715.8431.3756,1.2419.6084.4105.2397.5456.7106.3243,1.0991-.2234.3922-.7141.5108-1.1299.2733-1.1289-.6449-2.3532-1.002-3.6268-1.2221-1.1488-.1985-2.3059-.2464-3.4655-.1983-.9368.0388-1.8658.1659-2.7686.4357-.3394.1015-.6339.0423-.8721-.2211-.207-.2289-.2611-.4997-.1561-.792.0896-.2494.2696-.4191.5208-.4945.735-.2206,1.4878-.3492,2.2498-.439.6166-.0727,1.235-.0771,1.7696-.0989Z"/>
  <path class="uuid-470c573f-7480-4827-b5f3-9a00cae9ac87" d="M7.65,9.2425c-1.0982.0114-2.0959.1285-3.0705.4152-.3829.1126-.7517-.0701-.8581-.4166-.113-.368.0806-.7196.4727-.8423.7062-.2209,1.4301-.3473,2.1668-.4184.6751-.0652,1.3495-.0821,2.0251-.0374,1.8933.1254,3.6871.592,5.3326,1.5649.2868.1696.4024.418.345.736-.0468.2595-.2222.4191-.4728.4976-.1827.0572-.3566.0252-.5131-.0699-1.1376-.6911-2.3784-1.078-3.6865-1.2825-.6065-.0948-1.2158-.1238-1.7411-.1467Z"/>
  <path class="uuid-470c573f-7480-4827-b5f3-9a00cae9ac87" d="M7.6922,10.7173c1.7849-.0211,3.4609.3787,5.0035,1.2938.2525.1498.3493.3317.3019.5998-.0383.2168-.1842.3445-.3902.406-.1466.0437-.2821.0053-.4072-.071-.9835-.6-2.0546-.9517-3.1915-1.0996-.8063-.1049-1.6155-.1122-2.427-.0238-.6361.0693-1.2658.1645-1.8895.3073-.2784.0638-.5651-.1189-.6316-.3796-.073-.2863.0828-.5662.3812-.6417.6963-.1762,1.4049-.2782,2.1199-.3485.3773-.0371.7537-.0299,1.1305-.0428Z"/>
</svg>